<svg width="275" height="293" viewBox="0 0 275 293" fill="none" xmlns="http://www.w3.org/2000/svg">
<path d="M154.716 125.113C160.593 115.19 173.401 111.91 183.324 117.786C193.247 123.663 196.528 136.471 190.651 146.395C184.774 156.318 171.966 159.598 162.043 153.722C152.12 147.845 148.839 135.037 154.716 125.113Z" fill="#D8C2F9"/>
<path d="M148.277 184.813C146.902 187.135 143.904 187.903 141.582 186.528C139.259 185.152 138.492 182.155 139.867 179.832L150.281 162.247C151.657 159.925 154.654 159.157 156.977 160.532C159.299 161.908 160.067 164.905 158.692 167.228L148.277 184.813Z" fill="#D8C2F9"/>
<path d="M115.356 146.842C112.741 147.512 110.079 145.935 109.409 143.32C108.739 140.705 110.316 138.043 112.931 137.373L132.729 132.302C135.344 131.633 138.007 133.209 138.676 135.824C139.346 138.439 137.769 141.102 135.155 141.771L115.356 146.842Z" fill="#D8C2F9"/>
<path d="M188.957 190.429C189.626 193.044 192.289 194.621 194.904 193.951C197.518 193.282 199.095 190.619 198.426 188.004L193.355 168.206C192.685 165.591 190.023 164.014 187.408 164.684C184.793 165.353 183.216 168.016 183.886 170.631L188.957 190.429Z" fill="#D8C2F9"/>
<path d="M248.048 126.148C253.925 116.224 266.733 112.944 276.656 118.821C286.579 124.697 289.86 137.506 283.983 147.429C278.106 157.352 265.298 160.632 255.375 154.756C245.452 148.879 242.171 136.071 248.048 126.148Z" fill="#E0F7FA"/>
<path d="M241.609 185.847C240.234 188.17 237.236 188.937 234.914 187.562C232.591 186.187 231.824 183.189 233.199 180.866L243.613 163.281C244.989 160.959 247.986 160.191 250.309 161.566C252.631 162.942 253.399 165.94 252.024 168.262L241.609 185.847Z" fill="#E0F7FA"/>
<path d="M208.688 147.876C206.073 148.546 203.411 146.969 202.741 144.354C202.071 141.739 203.648 139.077 206.263 138.407L226.061 133.337C228.676 132.667 231.339 134.244 232.008 136.858C232.678 139.473 231.101 142.136 228.487 142.805L208.688 147.876Z" fill="#E0F7FA"/>
<path d="M282.289 191.464C282.958 194.078 285.621 195.655 288.236 194.986C290.85 194.316 292.427 191.653 291.758 189.038L286.687 169.24C286.017 166.625 283.355 165.048 280.74 165.718C278.125 166.388 276.548 169.05 277.218 171.665L282.289 191.464Z" fill="#E0F7FA"/>
<path d="M247.179 204.62C253.056 194.697 265.864 191.416 275.787 197.293C285.71 203.169 288.991 215.978 283.114 225.901C277.237 235.824 264.429 239.105 254.506 233.228C244.583 227.351 241.302 214.543 247.179 204.62Z" fill="#00D584"/>
<path d="M240.74 264.319C239.365 266.642 236.367 267.41 234.045 266.034C231.722 264.659 230.954 261.661 232.33 259.339L242.744 241.753C244.119 239.431 247.117 238.663 249.44 240.039C251.762 241.414 252.53 244.412 251.154 246.734L240.74 264.319Z" fill="#00D584"/>
<path d="M207.819 226.348C205.204 227.018 202.541 225.441 201.872 222.826C201.202 220.212 202.779 217.549 205.394 216.879L225.192 211.809C227.807 211.139 230.47 212.716 231.139 215.331C231.809 217.945 230.232 220.608 227.617 221.278L207.819 226.348Z" fill="#00D584"/>
<path d="M281.42 269.936C282.089 272.551 284.752 274.127 287.367 273.458C289.981 272.788 291.558 270.125 290.888 267.511L285.818 247.712C285.148 245.097 282.486 243.52 279.871 244.19C277.256 244.86 275.679 247.522 276.349 250.137L281.42 269.936Z" fill="#00D584"/>
<path d="M60.4489 34.4107C66.3256 24.4875 79.1339 21.2072 89.0571 27.0838C98.9803 32.9605 102.261 45.7688 96.384 55.692C90.5073 65.6152 77.699 68.8956 67.7758 63.0189C57.8526 57.1423 54.5722 44.3339 60.4489 34.4107Z" fill="#FCF9DC"/>
<path d="M54.0102 94.1104C52.6348 96.4328 49.6371 97.2006 47.3147 95.8252C44.9922 94.4498 44.2245 91.4521 45.5999 89.1297L56.0141 71.5444C57.3895 69.222 60.3872 68.4542 62.7097 69.8296C65.0321 71.205 65.7999 74.2027 64.4245 76.5251L54.0102 94.1104Z" fill="#FCF9DC"/>
<path d="M21.0888 56.1393C18.474 56.809 15.8115 55.2322 15.1418 52.6174C14.4721 50.0026 16.0489 47.3401 18.6637 46.6704L38.4624 41.5997C41.0771 40.93 43.7397 42.5069 44.4094 45.1216C45.079 47.7364 43.5022 50.399 40.8875 51.0686L21.0888 56.1393Z" fill="#FCF9DC"/>
<path d="M94.6896 99.7268C95.3593 102.342 98.0218 103.918 100.637 103.249C103.251 102.579 104.828 99.9164 104.159 97.3017L99.0878 77.503C98.4182 74.8883 95.7556 73.3115 93.1408 73.9811C90.5261 74.6508 88.9492 77.3134 89.6189 79.9281L94.6896 99.7268Z" fill="#FCF9DC"/>
<path d="M152.342 35.4278C158.219 25.5046 171.027 22.2242 180.951 28.1009C190.874 33.9776 194.154 46.7859 188.278 56.7091C182.401 66.6323 169.593 69.9127 159.669 64.036C149.746 58.1593 146.466 45.351 152.342 35.4278Z" fill="#CAFEE3"/>
<path d="M145.904 95.1275C144.528 97.4499 141.531 98.2177 139.208 96.8423C136.886 95.4669 136.118 92.4692 137.493 90.1468L147.908 72.5615C149.283 70.239 152.281 69.4713 154.603 70.8467C156.926 72.2221 157.693 75.2198 156.318 77.5422L145.904 95.1275Z" fill="#CAFEE3"/>
<path d="M112.982 57.1564C110.368 57.8261 107.705 56.2492 107.035 53.6345C106.366 51.0197 107.942 48.3571 110.557 47.6875L130.356 42.6168C132.971 41.9471 135.633 43.5239 136.303 46.1387C136.973 48.7535 135.396 51.416 132.781 52.0857L112.982 57.1564Z" fill="#CAFEE3"/>
<path d="M186.583 100.744C187.253 103.359 189.915 104.935 192.53 104.266C195.145 103.596 196.722 100.934 196.052 98.3188L190.981 78.5201C190.312 75.9054 187.649 74.3285 185.034 74.9982C182.42 75.6679 180.843 78.3305 181.512 80.9452L186.583 100.744Z" fill="#CAFEE3"/>
<path d="M249.042 36.4991C254.918 26.5759 267.727 23.2955 277.65 29.1722C287.573 35.0489 290.853 47.8572 284.977 57.7804C279.1 67.7036 266.292 70.984 256.369 65.1073C246.445 59.2306 243.165 46.4223 249.042 36.4991Z" fill="#F7EF99"/>
<path d="M242.603 96.1988C241.228 98.5212 238.23 99.289 235.907 97.9136C233.585 96.5382 232.817 93.5405 234.193 91.218L244.607 73.6328C245.982 71.3103 248.98 70.5426 251.302 71.918C253.625 73.2934 254.393 76.2911 253.017 78.6135L242.603 96.1988Z" fill="#F7EF99"/>
<path d="M209.682 58.2277C207.067 58.8973 204.404 57.3205 203.735 54.7058C203.065 52.091 204.642 49.4284 207.256 48.7588L227.055 43.6881C229.67 43.0184 232.332 44.5952 233.002 47.21C233.672 49.8248 232.095 52.4873 229.48 53.157L209.682 58.2277Z" fill="#F7EF99"/>
<path d="M283.282 101.815C283.952 104.43 286.615 106.007 289.229 105.337C291.844 104.667 293.421 102.005 292.751 99.3901L287.681 79.5914C287.011 76.9766 284.348 75.3998 281.734 76.0695C279.119 76.7392 277.542 79.4017 278.212 82.0165L283.282 101.815Z" fill="#F7EF99"/>
</svg>
