<svg width="194" height="64" viewBox="0 0 194 64" fill="none" xmlns="http://www.w3.org/2000/svg">
<g clip-path="url(#clip0_2210_2442)">
<path d="M32.3693 22.3333C32.3693 26.6596 28.8622 30.1667 24.536 30.1667C20.2098 30.1667 16.7027 26.6596 16.7027 22.3333C16.7027 18.0071 20.2098 14.5 24.536 14.5C28.8622 14.5 32.3693 18.0071 32.3693 22.3333Z" fill="#E0F7FA"/>
<path d="M2.35664 22.5302C0.423344 23.3013 -0.540224 25.5105 0.484139 27.3224C2.60283 31.0699 5.56875 34.2924 9.16486 36.7203C13.8067 39.8543 19.2839 41.5196 24.8846 41.4998C30.4853 41.4801 35.9505 39.7761 40.5701 36.6094C44.149 34.1562 47.0921 30.9129 49.1843 27.1504C50.1958 25.3313 49.2167 23.1291 47.278 22.3716C45.3393 21.6141 43.1813 22.5976 42.0802 24.3639C40.5998 26.7387 38.6387 28.795 36.3084 30.3924C32.9361 32.7041 28.9465 33.9479 24.8579 33.9624C20.7694 33.9768 16.7711 32.7611 13.3826 30.4733C11.041 28.8924 9.06544 26.85 7.56834 24.4858C6.4548 22.7273 4.28993 21.759 2.35664 22.5302Z" fill="#E0F7FA"/>
<path d="M23.036 1.83333C23.036 0.820811 23.8568 0 24.8693 0C25.8819 0 26.7027 0.820811 26.7027 1.83333V9.5C26.7027 10.5125 25.8819 11.3333 24.8693 11.3333C23.8568 11.3333 23.036 10.5125 23.036 9.5V1.83333Z" fill="#E0F7FA"/>
<path d="M40.9202 7.79636C41.6361 7.0804 42.7969 7.0804 43.5129 7.79636C44.2289 8.51232 44.2289 9.67313 43.5129 10.3891L38.0917 15.8102C37.3758 16.5262 36.215 16.5262 35.499 15.8102C34.7831 15.0943 34.7831 13.9335 35.499 13.2175L40.9202 7.79636Z" fill="#E0F7FA"/>
<path d="M8.83236 7.79636C8.11639 7.0804 6.95559 7.0804 6.23963 7.79636C5.52367 8.51232 5.52367 9.67313 6.23963 10.3891L11.6608 15.8102C12.3767 16.5262 13.5375 16.5262 14.2535 15.8102C14.9695 15.0943 14.9695 13.9335 14.2535 13.2175L8.83236 7.79636Z" fill="#E0F7FA"/>
<path d="M13.7027 37.8333H36.036V57.3333C36.036 61.0152 33.0512 64 29.3693 64H20.3693C16.6874 64 13.7027 61.0152 13.7027 57.3333V37.8333Z" fill="#E0F7FA"/>
<path d="M77.7454 16.9371C77.6541 16.0156 77.2619 15.2998 76.5689 14.7896C75.8759 14.2794 74.9354 14.0243 73.7475 14.0243C72.9402 14.0243 72.2587 14.1385 71.7028 14.3669C71.1469 14.5878 70.7204 14.8962 70.4234 15.2922C70.134 15.6882 69.9893 16.1375 69.9893 16.6401C69.9741 17.0589 70.0617 17.4244 70.2521 17.7367C70.4501 18.0489 70.7204 18.3192 71.0631 18.5477C71.4058 18.7685 71.8018 18.9627 72.2511 19.1303C72.7004 19.2902 73.1801 19.4272 73.6903 19.5415L75.7921 20.0441C76.8126 20.2725 77.7493 20.5771 78.6022 20.9579C79.4551 21.3387 80.1937 21.807 80.8182 22.3629C81.4426 22.9188 81.9262 23.5737 82.2689 24.3276C82.6192 25.0815 82.7981 25.9459 82.8058 26.9206C82.7981 28.3523 82.4326 29.5936 81.7092 30.6445C80.9933 31.6877 79.9577 32.4988 78.6022 33.0775C77.2543 33.6487 75.6284 33.9342 73.7246 33.9342C71.836 33.9342 70.1911 33.6449 68.79 33.0661C67.3964 32.4873 66.3074 31.6306 65.523 30.496C64.7463 29.3537 64.3389 27.9411 64.3008 26.2581H69.0869C69.1403 27.0425 69.3649 27.6974 69.7609 28.2228C70.1645 28.7407 70.7014 29.1328 71.3715 29.3994C72.0493 29.6583 72.8146 29.7877 73.6675 29.7877C74.5052 29.7877 75.2324 29.6659 75.8493 29.4222C76.4737 29.1785 76.9573 28.8397 77.3 28.4056C77.6426 27.9715 77.814 27.4727 77.814 26.9092C77.814 26.3837 77.6579 25.9421 77.3456 25.5841C77.041 25.2262 76.5917 24.9216 75.9978 24.6703C75.4114 24.419 74.6917 24.1906 73.8388 23.985L71.2915 23.3453C69.3192 22.8655 67.7619 22.1154 66.6196 21.095C65.4773 20.0745 64.91 18.7 64.9176 16.9713C64.91 15.5549 65.287 14.3174 66.0485 13.2589C66.8176 12.2004 67.8723 11.3742 69.2126 10.7802C70.5529 10.1862 72.0759 9.88919 73.7817 9.88919C75.518 9.88919 77.0334 10.1862 78.328 10.7802C79.6302 11.3742 80.643 12.2004 81.3665 13.2589C82.0899 14.3174 82.4631 15.5435 82.4859 16.9371H77.7454Z" fill="#E0F7FA"/>
<path d="M89.8071 28.5541L89.8186 22.717H90.5268L96.1468 16.0575H101.733L94.1821 24.8759H93.0284L89.8071 28.5541ZM85.3979 33.603V10.209H90.2641V33.603H85.3979ZM96.3638 33.603L91.2007 25.9611L94.4448 22.5228L102.064 33.603H96.3638Z" fill="#E0F7FA"/>
<path d="M103.477 33.603V16.0575H108.343V33.603H103.477ZM105.921 13.7958C105.198 13.7958 104.577 13.5559 104.059 13.0762C103.549 12.5888 103.294 12.0062 103.294 11.3285C103.294 10.6583 103.549 10.0834 104.059 9.60362C104.577 9.11625 105.198 8.87256 105.921 8.87256C106.645 8.87256 107.261 9.11625 107.772 9.60362C108.289 10.0834 108.548 10.6583 108.548 11.3285C108.548 12.0062 108.289 12.5888 107.772 13.0762C107.261 13.5559 106.645 13.7958 105.921 13.7958Z" fill="#E0F7FA"/>
<path d="M116.464 10.209V33.603H111.597V10.209H116.464Z" fill="#E0F7FA"/>
<path d="M124.584 10.209V33.603H119.718V10.209H124.584Z" fill="#E0F7FA"/>
<path d="M142.437 21.0607L137.983 21.3349C137.906 20.9541 137.743 20.6114 137.491 20.3068C137.24 19.9946 136.909 19.7471 136.498 19.5643C136.094 19.3739 135.61 19.2788 135.047 19.2788C134.293 19.2788 133.657 19.4387 133.139 19.7585C132.621 20.0707 132.363 20.4896 132.363 21.015C132.363 21.4339 132.53 21.788 132.865 22.0773C133.2 22.3667 133.775 22.599 134.59 22.7741L137.766 23.4138C139.471 23.7641 140.743 24.3276 141.581 25.1044C142.418 25.8811 142.837 26.9016 142.837 28.1657C142.837 29.3156 142.498 30.3246 141.821 31.1928C141.15 32.0609 140.229 32.7386 139.056 33.226C137.891 33.7058 136.547 33.9457 135.024 33.9457C132.701 33.9457 130.851 33.4621 129.473 32.495C128.102 31.5202 127.298 30.1952 127.062 28.5198L131.848 28.2685C131.993 28.9767 132.343 29.5174 132.899 29.8906C133.455 30.2561 134.167 30.4388 135.035 30.4388C135.888 30.4388 136.574 30.2751 137.092 29.9477C137.617 29.6126 137.884 29.1823 137.891 28.6569C137.884 28.2152 137.697 27.8535 137.331 27.5717C136.966 27.2823 136.402 27.0615 135.641 26.9092L132.602 26.3038C130.889 25.9611 129.613 25.3671 128.776 24.5218C127.946 23.6765 127.531 22.599 127.531 21.2892C127.531 20.1621 127.835 19.1912 128.444 18.3763C129.061 17.5615 129.926 16.9333 131.037 16.4916C132.157 16.0499 133.467 15.8291 134.967 15.8291C137.183 15.8291 138.927 16.2974 140.199 17.2341C141.478 18.1707 142.224 19.4463 142.437 21.0607Z" fill="#E0F7FA"/>
<path d="M85.6957 47.7325H80.6925C80.6011 47.0852 80.4146 46.5103 80.1328 46.0077C79.8511 45.4975 79.4893 45.0634 79.0476 44.7055C78.606 44.3476 78.0957 44.0734 77.517 43.883C76.9458 43.6927 76.3252 43.5975 75.6551 43.5975C74.4442 43.5975 73.3895 43.8983 72.4909 44.4999C71.5923 45.0939 70.8956 45.962 70.4006 47.1043C69.9056 48.2389 69.6581 49.6173 69.6581 51.2393C69.6581 52.9071 69.9056 54.3083 70.4006 55.4429C70.9032 56.5776 71.6038 57.4343 72.5024 58.0131C73.401 58.5918 74.4404 58.8812 75.6208 58.8812C76.2833 58.8812 76.8963 58.7936 77.4599 58.6185C78.031 58.4433 78.5374 58.1882 78.9791 57.8531C79.4208 57.5105 79.7863 57.0954 80.0757 56.6081C80.3727 56.1207 80.5783 55.5648 80.6925 54.9403L85.6957 54.9632C85.5663 56.0369 85.2426 57.0726 84.7248 58.0702C84.2146 59.0602 83.5254 59.9473 82.6573 60.7317C81.7967 61.5085 80.7687 62.1253 79.5731 62.5822C78.3851 63.0315 77.041 63.2561 75.5408 63.2561C73.4543 63.2561 71.5885 62.784 69.9437 61.8397C68.3064 60.8954 67.0118 59.5285 66.0599 57.7389C65.1156 55.9493 64.6435 53.7828 64.6435 51.2393C64.6435 48.6882 65.1232 46.5179 66.0827 44.7283C67.0423 42.9388 68.3445 41.5756 69.9893 40.639C71.6342 39.6947 73.4847 39.2225 75.5408 39.2225C76.8963 39.2225 78.1529 39.4129 79.3104 39.7937C80.4755 40.1744 81.5074 40.7303 82.406 41.4614C83.3045 42.1848 84.0356 43.072 84.5991 44.1229C85.1703 45.1738 85.5358 46.377 85.6957 47.7325Z" fill="#E0F7FA"/>
<path d="M96.4352 63.279C94.6609 63.279 93.1264 62.902 91.8318 62.1481C90.5449 61.3866 89.5511 60.3281 88.8505 58.9726C88.1499 57.6095 87.7996 56.0293 87.7996 54.2321C87.7996 52.4197 88.1499 50.8357 88.8505 49.4802C89.5511 48.1171 90.5449 47.0586 91.8318 46.3047C93.1264 45.5432 94.6609 45.1624 96.4352 45.1624C98.2096 45.1624 99.7402 45.5432 101.027 46.3047C102.322 47.0586 103.319 48.1171 104.02 49.4802C104.721 50.8357 105.071 52.4197 105.071 54.2321C105.071 56.0293 104.721 57.6095 104.02 58.9726C103.319 60.3281 102.322 61.3866 101.027 62.1481C99.7402 62.902 98.2096 63.279 96.4352 63.279ZM96.4581 59.5095C97.2653 59.5095 97.9392 59.281 98.4799 58.8241C99.0206 58.3596 99.428 57.7275 99.7022 56.9279C99.9839 56.1283 100.125 55.2183 100.125 54.1978C100.125 53.1774 99.9839 52.2674 99.7022 51.4678C99.428 50.6682 99.0206 50.0361 98.4799 49.5716C97.9392 49.1071 97.2653 48.8748 96.4581 48.8748C95.6433 48.8748 94.9579 49.1071 94.402 49.5716C93.8537 50.0361 93.4386 50.6682 93.1569 51.4678C92.8827 52.2674 92.7457 53.1774 92.7457 54.1978C92.7457 55.2183 92.8827 56.1283 93.1569 56.9279C93.4386 57.7275 93.8537 58.3596 94.402 58.8241C94.9579 59.281 95.6433 59.5095 96.4581 59.5095Z" fill="#E0F7FA"/>
<path d="M112.458 52.7928V62.9363H107.592V45.3909H112.229V48.4864H112.435C112.823 47.466 113.474 46.6588 114.388 46.0648C115.302 45.4632 116.41 45.1624 117.712 45.1624C118.931 45.1624 119.993 45.4289 120.899 45.962C121.805 46.4951 122.51 47.2566 123.012 48.2466C123.515 49.2289 123.766 50.4017 123.766 51.7648V62.9363H118.9V52.6329C118.908 51.5592 118.634 50.7215 118.078 50.1199C117.522 49.5107 116.757 49.2061 115.782 49.2061C115.127 49.2061 114.548 49.347 114.046 49.6287C113.551 49.9105 113.162 50.3217 112.88 50.8624C112.606 51.3955 112.465 52.0389 112.458 52.7928Z" fill="#E0F7FA"/>
<path d="M131.824 52.7928V62.9363H126.958V45.3909H131.596V48.4864H131.802C132.19 47.466 132.841 46.6588 133.755 46.0648C134.669 45.4632 135.777 45.1624 137.079 45.1624C138.297 45.1624 139.36 45.4289 140.266 45.962C141.172 46.4951 141.876 47.2566 142.379 48.2466C142.882 49.2289 143.133 50.4017 143.133 51.7648V62.9363H138.267V52.6329C138.274 51.5592 138 50.7215 137.444 50.1199C136.889 49.5107 136.123 49.2061 135.148 49.2061C134.494 49.2061 133.915 49.347 133.412 49.6287C132.917 49.9105 132.529 50.3217 132.247 50.8624C131.973 51.3955 131.832 52.0389 131.824 52.7928Z" fill="#E0F7FA"/>
<path d="M154.321 63.279C152.516 63.279 150.963 62.9135 149.66 62.1824C148.366 61.4437 147.368 60.4004 146.668 59.0525C145.967 57.697 145.617 56.094 145.617 54.2435C145.617 52.4387 145.967 50.8548 146.668 49.4916C147.368 48.1285 148.354 47.0662 149.626 46.3047C150.905 45.5432 152.406 45.1624 154.127 45.1624C155.284 45.1624 156.362 45.349 157.359 45.7221C158.365 46.0876 159.24 46.6397 159.987 47.3784C160.74 48.1171 161.327 49.0462 161.746 50.1656C162.165 51.2774 162.374 52.5796 162.374 54.0722V55.4087H147.559V52.393H157.793C157.793 51.6924 157.641 51.0718 157.336 50.5311C157.032 49.9904 156.609 49.5678 156.069 49.2632C155.535 48.951 154.915 48.7949 154.207 48.7949C153.468 48.7949 152.813 48.9662 152.242 49.3089C151.678 49.6439 151.237 50.0971 150.917 50.6682C150.597 51.2317 150.433 51.86 150.426 52.553V55.4201C150.426 56.2882 150.586 57.0383 150.905 57.6704C151.233 58.3024 151.694 58.7898 152.288 59.1325C152.882 59.4752 153.586 59.6465 154.401 59.6465C154.941 59.6465 155.436 59.5704 155.886 59.4181C156.335 59.2658 156.72 59.0373 157.039 58.7327C157.359 58.4281 157.603 58.055 157.771 57.6133L162.271 57.9103C162.043 58.9916 161.574 59.9359 160.866 60.7431C160.166 61.5427 159.259 62.1672 158.147 62.6165C157.043 63.0581 155.768 63.279 154.321 63.279Z" fill="#E0F7FA"/>
<path d="M172.834 63.279C171.036 63.279 169.491 62.8982 168.196 62.1367C166.909 61.3676 165.919 60.3014 165.226 58.9383C164.541 57.5752 164.198 56.0065 164.198 54.2321C164.198 52.4349 164.544 50.8586 165.237 49.5031C165.938 48.1399 166.932 47.0776 168.219 46.3161C169.506 45.547 171.036 45.1624 172.811 45.1624C174.341 45.1624 175.682 45.4403 176.832 45.9963C177.981 46.5522 178.891 47.3327 179.562 48.3379C180.232 49.3431 180.601 50.5235 180.67 51.879H176.078C175.948 51.0033 175.606 50.2989 175.05 49.7658C174.501 49.2251 173.782 48.9548 172.891 48.9548C172.137 48.9548 171.478 49.1604 170.915 49.5716C170.359 49.9752 169.925 50.5654 169.612 51.3421C169.3 52.1189 169.144 53.0594 169.144 54.1636C169.144 55.283 169.296 56.2349 169.601 57.0193C169.913 57.8036 170.351 58.4014 170.915 58.8127C171.478 59.2239 172.137 59.4295 172.891 59.4295C173.447 59.4295 173.945 59.3153 174.387 59.0868C174.836 58.8584 175.206 58.5271 175.495 58.093C175.792 57.6513 175.986 57.1221 176.078 56.5053H180.67C180.593 57.8455 180.228 59.0259 179.573 60.0463C178.926 61.0592 178.031 61.8511 176.889 62.4223C175.746 62.9934 174.395 63.279 172.834 63.279Z" fill="#E0F7FA"/>
<path d="M192.474 45.3909V49.0462H181.908V45.3909H192.474ZM184.307 41.1873H189.173V57.5447C189.173 57.994 189.242 58.3443 189.379 58.5956C189.516 58.8393 189.706 59.0107 189.95 59.1097C190.201 59.2087 190.491 59.2582 190.818 59.2582C191.046 59.2582 191.275 59.2391 191.503 59.201C191.732 59.1554 191.907 59.1211 192.029 59.0982L192.794 62.7193C192.55 62.7954 192.208 62.883 191.766 62.982C191.324 63.0886 190.788 63.1533 190.155 63.1762C188.983 63.2219 187.955 63.0658 187.071 62.7079C186.196 62.3499 185.514 61.794 185.027 61.0401C184.539 60.2862 184.299 59.3343 184.307 58.1844V41.1873Z" fill="#E0F7FA"/>
</g>
<defs>
<clipPath id="clip0_2210_2442">
<rect width="193.862" height="64" fill="white" transform="translate(0.0688477)"/>
</clipPath>
</defs>
</svg>
